<?xml version="1.0" encoding="utf-8"?>
<!-- Generator: Adobe Illustrator 19.2.1, SVG Export Plug-In . SVG Version: 6.00 Build 0)  -->
<svg version="1.1" baseProfile="tiny" id="linkedin"
	 xmlns="http://www.w3.org/2000/svg" xmlns:xlink="http://www.w3.org/1999/xlink" x="0px" y="0px" viewBox="0 0 100 100"
	 xml:space="preserve">
<circle fill="#0399FF" cx="50" cy="50" r="48"/>
<g>
	<path fill="#FFFFFF" d="M43.5,29.6c0,4.2,0.1,6.4,0.1,6.4c0,0.7,0,1.4,0,1.4s0,0.5,0,1.1c0,0.6-0.6,1.1-1.4,1.1h-6.8
		c-0.8,0-1.4,0.6-1.4,1.4v5.8c0,0.8,0.6,1.4,1.4,1.4h6.9c0.8,0,1.4,0.6,1.4,1.4l0.2,24.9c0,0.7,0.6,1.4,1.4,1.4h8.6
		c0.8,0,1.4-0.6,1.4-1.4L55,49.6c0-0.7,0.6-1.4,1.4-1.4h7.2c0.8,0,1.4-0.6,1.4-1.4V41c0-0.8-0.6-1.4-1.4-1.4h-7.3
		c-0.8,0-1.4-0.5-1.4-1.1c0-0.6,0-1.1,0-1.1s0-0.6,0-1.4l0-3.4c0-0.7,0.6-1.4,1.4-1.4l8.4,0.1c0.7,0,1.4-0.6,1.4-1.4v-3.4
		c0-0.8-0.6-1.5-1.4-1.6C64.7,24.8,43.5,21.4,43.5,29.6"/>
</g>
</svg>
