<?xml version="1.0" encoding="utf-8"?>
<!-- Generator: Adobe Illustrator 19.2.1, SVG Export Plug-In . SVG Version: 6.00 Build 0)  -->
<svg version="1.1" baseProfile="tiny" id="Layer_1" xmlns="http://www.w3.org/2000/svg" xmlns:xlink="http://www.w3.org/1999/xlink"
	 x="0px" y="0px" viewBox="0 0 150 150" xml:space="preserve">
<path fill="#FFFFFF" d="M57.2,96.3c-22.5,2.4-22.5,2.3-22.5,2.3c-0.1,0-1.5,1.2-3.2,2.8s-3,7-3,11.8s10.2,8.9,22.8,8.9
	s22.8,0,22.8,0"/>
<path fill="#FFFFFF" d="M62.6,81.9c-5.5,14.3-5.4,14.2-5.4,14.2"/>
<path fill="#FFFFFF" d="M93.3,96.3c22.5,2.4,22.5,2.3,22.5,2.3c0.1,0,1.5,1.2,3.2,2.8c1.7,1.6,3,7,3,11.8s-10.8,8.9-24,8.9
	s-24,0-24,0"/>
<path fill="#FFFFFF" d="M93.3,96.1c0,0,0.1,0.2-6.1-14.9"/>
<path fill="#FFFFFF" d="M97.3,63.3c1.2-0.4,1.8-2.4,1.2-4.6s-1.1-3.8-1.1-3.7c0,0.1-1.2-1.7-2.7-4.1c0,0,0,0,3.5-1.8
	c12.1-6.3-10.8-18.9-24.1-18.9s-27.1,6-24.2,18.9c0.4,1.8,0.4,1.8,0.4,1.8c0.1,2.2-0.3,5.7-0.9,7.8c-0.6,2.1,0,4.1,1.2,4.5
	s4.1,4.8,6.5,9.8c0,0,8,17.2,17,18.8c8.7,1.5,17.1-18.6,17.1-18.6C93.3,68.2,96,63.7,97.3,63.3z"/>
</svg>
